<svg xmlns="http://www.w3.org/2000/svg" version="1.1" xmlns:xlink="http://www.w3.org/1999/xlink" width="512" height="512" x="0" y="0" viewBox="0 0 187.4 190.1" style="enable-background:new 0 0 512 512" xml:space="preserve" class=""><g><path fill="#e5a100" d="M93.7 4.7C42 4.7 0 46.3 0 97.4s42 92.7 93.7 92.7 93.7-41.6 93.7-92.7c0-51.2-42.1-92.7-93.7-92.7z" opacity="1" data-original="#e5a100" class=""></path><path fill="#ffcf00" d="M93.7 0C43.3 0 2.2 41 2.2 91.5s41 91.5 91.5 91.5 91.5-41 91.5-91.5C185.1 41 144.1 0 93.7 0z" opacity="1" data-original="#ffcf00" class=""></path><path fill="#e5a100" d="M93.7 15.5c-41.9 0-76 34.1-76 76s34.1 76 76 76 76-34.1 76-76-34.1-76-76-76zm0 144.4c-37.7 0-68.4-30.7-68.4-68.4S56 23.1 93.7 23.1s68.4 30.7 68.4 68.4-30.7 68.4-68.4 68.4z" opacity="1" data-original="#e5a100" class=""></path><g fill="#ffe500"><path d="M91.5 182.7c-.4 0-.8-.2-1-.4-.2-.3-.4-.6-.3-1l.6-11.7c.1-.7.5-1.1 1.2-1.1.3 0 .6.1.8.4.2.2.3.5.3.7l-.2 11.8c0 .7-.6 1.3-1.4 1.3zm19.8-1.8c-.5 0-1-.4-1.1-1l-2.1-11.8c0-.3 0-.5.1-.7s.4-.3.6-.4h.2c.5 0 .8.3.9.7l2.7 11.7c.1.4 0 .7-.2 1s-.5.5-.8.6h-.2c.1-.1 0-.1-.1-.1zm-39.7-.9h-.3c-.4-.1-.7-.3-.9-.7-.2-.3-.2-.7-.1-.9l3.2-11.6c.1-.4.6-.7 1-.7h.2c.5.1.8.6.7 1.2l-2.5 11.6c-.1.6-.7 1.1-1.3 1.1zm58.9-5.2c-.4 0-.8-.3-1-.7l-4.7-11c-.2-.5 0-1 .5-1.3h.4c.4 0 .7.2.9.5l5.2 10.7c.2.4.2.7.1 1.1-.1.3-.3.5-.5.6l-.3.1c-.3-.1-.4 0-.6 0zm-77.8-2c-.2 0-.4 0-.6-.1-.3-.2-.5-.4-.7-.8-.1-.4-.1-.7.1-1l5.8-10.5c.2-.5.7-.5.8-.5.2 0 .4 0 .5.1.3.1.4.3.5.6.1.2 0 .4 0 .6L53.9 172c-.2.5-.7.8-1.2.8zm95.4-8.2c-.5 0-.9-.2-1.2-.6l-6.9-9.7c-.3-.4-.2-1 .2-1.3.2-.2.4-.2.6-.2.3 0 .6.1.8.4l7.4 9.3c.2.3.3.6.3 1s-.2.7-.5.9l-.1.1c-.3.1-.5.1-.6.1zm-112.2-2.9c-.3 0-.6-.1-.8-.3-.6-.5-.7-1.4-.2-2l7.9-8.9c.2-.2.5-.3.8-.3.2 0 .5.1.6.2.4.3.6.9.2 1.4l-7.4 9.3c-.3.4-.7.6-1.1.6zm126.7-11.1c-.3 0-.6-.1-.9-.4l-8.9-7.9c-.4-.4-.4-1-.1-1.4.2-.2.5-.3.8-.3.2 0 .4.1.6.2l9.3 7.4c.3.2.5.6.5.9 0 .2 0 .6-.3.9l-.1.1v.1c-.3.3-.6.4-.9.4zm-140.4-3.5c-.4 0-.8-.2-1.1-.5-.2-.3-.3-.7-.2-1.1 0-.2.2-.5.5-.7l9.8-7c.1-.1.4-.2.6-.2.3 0 .7.1.9.4.4.5.2 1-.2 1.4l-9.3 7.4c-.4.2-.7.3-1 .3zm151.5-13.2c-.2 0-.4-.1-.6-.1l-10.5-5.8c-.6-.3-.6-.9-.4-1.4l.1-.2v-.1c.2-.2.5-.4.8-.4.1 0 .2 0 .4.1l10.8 5.2c.3.2.6.5.7.8s.1.6-.1.9l-.1.2v.1c-.3.5-.7.7-1.1.7zm-162-4.1c-.5 0-.9-.3-1.1-.8-.2-.3-.2-.6-.1-1 .1-.3.4-.6.7-.8l11-4.7c.1 0 .3-.1.4-.1.4 0 .7.2.9.6s0 1.1-.4 1.2l-10.7 5.2c-.3.3-.5.4-.7.4zM180.9 115h-.3l-11.5-3.3c-.5-.1-.8-.7-.7-1.2v-.1c.2-.4.5-.7 1-.7h.2l11.6 2.7c.4.1.7.3.9.6s.2.6.2.9c-.3.7-.8 1.1-1.4 1.1zM5.6 110.7c-.6 0-1.1-.4-1.3-.9V109.5c-.1-.4 0-.7.2-.9.2-.3.5-.5.9-.6l11.9-2.1h.2c.4 0 .7.3.8.6V106.8c.1.5-.2 1-.7 1.1L6 110.6c-.1.1-.3.1-.4.1zm166.2-16.2c-.7-.1-1.1-.5-1.1-1.2s.5-1.2 1.2-1.2h11.7c.4 0 .7.2 1 .4.2.3.3.6.3.9v.5c0 .4-.1.6-.2.7-.3.3-.7.5-1.1.5zM3.7 90.6c-.6 0-1.1-.6-1.1-1.3-.1-.8.4-1.3 1.1-1.3l12.1.6c.4 0 .8.4.8 1 0 .4-.5.9-.9.9zm166.6-13.7c-.5 0-1-.3-1.1-.9-.1-.3 0-.6.1-.8s.3-.3.6-.4l11.7-2.7h.3c.6 0 1.1.4 1.2.9v.2c.2.8-.4 1.4-1.1 1.6zM18.1 73.3h-.2L6.2 70.6c-.7-.2-1.1-.9-.9-1.6V68.7c.2-.5.7-.8 1.2-.8.1 0 .2 0 .3.1l11.7 3.3c.2.1.4.2.5.4.1.1.2.4.1.6V72.6c-.2.5-.5.7-1 .7zm146.5-13.2c-.3 0-.6-.2-.8-.6-.1-.2-.1-.5-.1-.8.1-.3.3-.5.5-.6l10.7-5.3c.2-.1.4-.2.6-.2.5 0 .9.3 1.1.7.1.3.2.7 0 1.1-.1.3-.4.6-.7.7l-11 4.9-.1.1h-.2zM24.2 57c-.1 0-.3 0-.4-.1l-10.7-5.2c-.3-.2-.6-.5-.7-.8s-.1-.7.1-1l.1-.2v-.1c.3-.4.7-.5 1.1-.5.2 0 .4.1.6.2l10.5 5.9c.3.2.4.4.5.6.1.3 0 .5-.1.8-.2.2-.6.4-1 .4zm131.6-11.8c-.3 0-.6-.2-.8-.4-.4-.5-.3-1 .1-1.4l9.3-7.5c.2-.2.5-.3.9-.3.2 0 .7.1 1 .5.2.3.3.6.3 1s-.2.7-.6.9l-9.6 6.9c-.2.2-.4.3-.6.3zM33.9 42.5c-.2 0-.4 0-.6-.2L24 34.8c-.6-.5-.7-1.3-.2-1.9.2-.3.6-.4 1-.4.3 0 .6.1.8.3l9 8c.2.2.3.4.3.7s-.1.5-.2.7c-.2.2-.5.3-.8.3zm109.8-10c-.2 0-.4-.1-.6-.2-.5-.4-.5-.9-.2-1.4l7.4-9.3c.3-.3.7-.5 1.1-.5.2 0 .5 0 .8.3.3.2.4.5.4.9s-.1.7-.3.9l-7.9 9c-.1.2-.4.3-.7.3zm-97.2-2.1c-.3 0-.6-.1-.8-.3l-7.4-9.3c-.2-.3-.3-.7-.3-1 0-.2.1-.6.5-.8.3-.2.6-.3.7-.3.4 0 .9.2 1.2.6l6.9 9.6c.3.4.2 1-.2 1.4-.1 0-.3.1-.6.1zm82.7-7.4c-.1 0-.3 0-.4-.1-.2-.1-.4-.3-.5-.6s-.1-.5.1-.8l5.2-10.7c.2-.5.7-.8 1.2-.8.2 0 .4 0 .6.1.3.2.5.4.7.8.1.4.1.7-.1 1l-5.6 10.4c-.5.4-.9.7-1.2.7zm-67.8-1.6c-.4 0-.7-.2-.9-.6l-5.3-10.7c-.2-.3-.2-.7-.1-1s.4-.6.7-.8c.1 0 .3-.1.5-.1.5 0 1 .3 1.2.8l4.7 11c.2.5 0 1-.5 1.3 0 .1-.1.1-.3.1zm51.5-4.6h-.3c-.3-.1-.5-.3-.7-.5-.1-.2-.2-.4-.1-.7l2.6-11.7c.1-.6.7-1.1 1.3-1.1h.3c.7.2 1.1.9 1 1.7L113.7 16c-.1.6-.5.8-.8.8zM78.2 16c-.5 0-1-.3-1-.7L74.5 3.7c-.1-.4 0-.8.2-1.1s.5-.4.8-.5h.3c.6 0 1.2.5 1.3 1.2L79.2 15c0 .3 0 .5-.1.7s-.4.3-.6.4c-.2-.1-.3-.1-.3-.1zm17.3-1.5c-.7 0-1-.5-1-1V1.6c0-.8.7-1.3 1.3-1.3h.1c.7 0 1.3.6 1.3 1.4l-.6 11.9c0 .4-.5.9-1.1.9z" fill="#ffe500" opacity="1" data-original="#ffe500" class=""></path><path d="M120.1 162.7c-8.6 3.3-18 5-27.4 5-23.2 0-47.1-10.4-62.3-33.9-3.5-5.3-4.7-8.2-4.7-8.2l4.5-8.3c0-.1 0-.2.1-.2 10.1 25.1 34.8 42.8 63.4 42.8 37.7 0 68.4-30.7 68.4-68.4 0-7.2-1.1-14.2-3.2-20.8v-.1c1.9.4 5.5 1.5 8.5 2.4 11.3 42.9-13.5 77.2-47.3 89.7z" fill="#ffe500" opacity="1" data-original="#ffe500" class=""></path></g><path fill="#ffc500" d="M93.7 23.1c-37.7 0-68.4 30.7-68.4 68.4 0 9 1.8 17.6 5 25.5 9.2-23.6 36-38.9 57.9-47.4 18.2-7 51.1-8.9 70.6.9-8.9-27.4-34.7-47.4-65.1-47.4z" opacity="1" data-original="#ffc500" class=""></path><g fill="#ffe500"><path d="m128.7 86.9-35-51-35 51 35 18.7z" fill="#ffe500" opacity="1" data-original="#ffe500" class=""></path><path d="m58.7 95.4 35 53.7 35-53.6-35 17z" fill="#ffe500" opacity="1" data-original="#ffe500" class=""></path></g><g fill="#c78c00"><path d="m124.7 85-31-45.3-31 45.3 31 16.5z" fill="#c78c00" opacity="1" data-original="#c78c00" class=""></path><path d="m124.7 98-31 16.6-31-16.7 31 45.4z" fill="#c78c00" opacity="1" data-original="#c78c00" class=""></path></g></g></svg>