<svg xmlns="http://www.w3.org/2000/svg" version="1.1" xmlns:xlink="http://www.w3.org/1999/xlink" width="512" height="512" x="0" y="0" viewBox="0 0 15.27 14.48" style="enable-background:new 0 0 512 512" xml:space="preserve" fill-rule="evenodd" class=""><g><path fill="#fbb738" d="M12.64 13.08c-1.02.83-2.26 1.34-3.6 1.39.75-.33 1.45-.81 2.05-1.39z" opacity="1" data-original="#fbb738" class=""></path><path fill="#e39910" d="M14.22 11.2c-.29.5-.63.95-1.01 1.35h-1.63c.34-.41.65-.86.91-1.35z" opacity="1" data-original="#e39910"></path><path fill="#fbb738" d="M14.99 9.38c-.13.45-.29.89-.49 1.29h-1.76c.19-.41.34-.84.45-1.29z" opacity="1" data-original="#fbb738" class=""></path><path fill="#e39910" d="M15.27 7.5c-.01.47-.07.92-.16 1.35h-1.8c.08-.43.13-.89.15-1.35z" opacity="1" data-original="#e39910"></path><path fill="#fbb738" d="M15.11 5.62c.09.44.15.89.16 1.35h-1.81c-.02-.46-.07-.91-.15-1.35z" opacity="1" data-original="#fbb738" class=""></path><path fill="#e39910" d="M14.5 3.8c.2.41.36.85.49 1.3h-1.8c-.11-.45-.26-.88-.45-1.3z" opacity="1" data-original="#e39910"></path><path fill="#fbb738" d="M13.21 1.93c.38.4.72.85 1.01 1.35h-1.73c-.26-.49-.57-.94-.91-1.35z" opacity="1" data-original="#fbb738" class=""></path><path fill="#e39910" d="M9.04 0c1.34.06 2.58.57 3.6 1.4h-1.55C10.49.81 9.79.34 9.04 0z" opacity="1" data-original="#e39910"></path><path fill="#fac461" d="M6.46 0c3.57 0 6.46 3.24 6.46 7.24s-2.89 7.24-6.46 7.24S0 11.24 0 7.24 2.89 0 6.46 0zm0 .98c3.03 0 5.48 2.8 5.48 6.26 0 3.45-2.45 6.25-5.48 6.25-3.02 0-5.48-2.8-5.48-6.25C.98 3.78 3.44.98 6.46.98z" opacity="1" data-original="#fac461" class=""></path><path fill="#fab025" d="M6.46 1.52c2.73 0 4.94 2.56 4.94 5.72s-2.21 5.72-4.94 5.72-4.94-2.56-4.94-5.72 2.21-5.72 4.94-5.72zm-.03 6.12-.57 1.94h3.08c.09 0 .16.07.16.15v.05l-.27.93c-.02.08-.1.14-.19.14H3.92l.79-2.69-.89.27.21-.62.88-.26 1.11-3.78c.02-.08.1-.14.19-.14h1.21c.08 0 .15.06.15.15v.05l-.93 3.18.88-.27-.19.65z" opacity="1" data-original="#fab025" class=""></path></g></svg>