<?xml version="1.0" encoding="UTF-8"?>
<svg id="Layer_1" data-name="Layer 1" xmlns="http://www.w3.org/2000/svg" viewBox="0 0 500 500">
  <defs>
    <style>
      .cls-1 {
        fill: #fefefe;
      }

      .cls-1, .cls-2, .cls-3 {
        stroke-width: 0px;
      }

      .cls-2 {
        fill: #1c4a81;
      }

      .cls-3 {
        fill: #1c4b81;
      }
    </style>
  </defs>
  <path class="cls-2" d="m249.92,495.09c-135.22,0-244.95-109.79-245.03-245.03C4.81,112.19,119.81-1.01,261.23,5.15c126.6,5.52,233.88,110.02,233.87,245.12,0,135.33-109.84,244.82-245.18,244.82Z"/>
  <path class="cls-1" d="m249.97,395.41c-80.41-.06-145.42-65.13-145.37-145.51.05-80.43,65.29-145.46,145.79-145.34,80.18.13,145.2,65.41,145.05,145.65-.14,80.32-65.2,145.25-145.48,145.19Z"/>
  <path class="cls-3" d="m249.97,354.29c-57.45-.01-104.27-46.86-104.24-104.29.03-57.51,46.66-104.15,104.25-104.27,57.46-.13,104.46,46.89,104.35,104.39-.12,57.53-46.85,104.19-104.36,104.17Z"/>
</svg>